<svg xmlns:xlink="http://www.w3.org/1999/xlink" xmlns="http://www.w3.org/2000/svg" class="IconWrapper _37eLOlD1Ku2ArGFa2GT91Y" viewBox="0 0 42 42" style="display: inline-block; fill: currentcolor; line-height: 1; vertical-align: middle; height: 32px; width: 32px;" width="42"  height="42" ><circle cx="21" cy="21" r="21" fill="#FFFFFF" stroke="#EFF1F5" stroke-width="1"></circle><path fill="#1F85BB" d="M20.7,6a2.56,2.56,0,0,0-2.6,2.5A2.5,2.5,0,0,0,20.7,11a10.26,10.26,0,0,1,7.7,17.4,2.42,2.42,0,0,0,.1,3.5,2.63,2.63,0,0,0,3.6-.1,14.93,14.93,0,0,0,4.4-10.5A15.54,15.54,0,0,0,20.7,6Z"></path><path fill="#1F85BB" d="M27.1,33.3a4.05,4.05,0,0,1-1.4-3,10.44,10.44,0,0,1-4.9,1.2,10.45,10.45,0,0,1-9.5-5.7,2.6,2.6,0,0,0-3.4-1.1A2.44,2.44,0,0,0,6.7,28a15.72,15.72,0,0,0,14.1,8.5,16.43,16.43,0,0,0,8-2.1A5,5,0,0,1,27.1,33.3Z"></path><path fill="#1F85BB" d="M17.2,11.6a4.71,4.71,0,0,1-1.2-3,5.85,5.85,0,0,1,.4-1.9A15.21,15.21,0,0,0,5,21.3a12.65,12.65,0,0,0,.3,2.8,4,4,0,0,1,1.6-1.2,4.47,4.47,0,0,1,3.2-.3,6.15,6.15,0,0,1-.1-1.3A10.2,10.2,0,0,1,17.2,11.6Z"></path><path fill="#1F85BB" id="plus" d="M25.7,19.2H21.8V15.3a1.3,1.3,0,1,0-2.6,0v3.9H15.3a1.3,1.3,0,1,0,0,2.6h3.9v3.9a1.3,1.3,0,1,0,2.6,0V21.8h3.9a1.3,1.3,0,1,0,0-2.6Z"></path></svg>